<?xml version="1.0" encoding="utf-8"?>
<!-- Generator: Adobe Illustrator 16.0.0, SVG Export Plug-In . SVG Version: 6.00 Build 0)  -->
<!DOCTYPE svg PUBLIC "-//W3C//DTD SVG 1.1//EN" "http://www.w3.org/Graphics/SVG/1.1/DTD/svg11.dtd">
<svg version="1.1" id="Capa_1" xmlns="http://www.w3.org/2000/svg" xmlns:xlink="http://www.w3.org/1999/xlink" x="0px" y="0px"
	 width="710.949px" height="156.778px" viewBox="0 0 710.949 156.778" enable-background="new 0 0 710.949 156.778"
	 xml:space="preserve">
<g>
	<path fill="#0A203F" d="M201.44,152.455c-13.017,0-19.039-6.02-19.039-19.039V33.945c0-13.016,6.022-19.039,19.039-19.039h30.697
		c39.05,0,78.683,16.318,78.683,68.387c0,48.375-39.244,69.162-77.128,69.162H201.44z M231.359,43.271h-16.514v80.432h15.737
		c23.703,0,45.655-9.715,45.655-40.41C276.238,52.402,254.285,43.271,231.359,43.271z"/>
	<path fill="#0A203F" d="M335.689,84.459c-6.216,0-11.268-4.857-11.268-11.463c0-3.691,1.554-8.16,7.576-11.852
		c10.104-6.217,21.76-8.549,32.055-8.549c32.446,0,44.493,15.932,44.493,51.096v34c0,14.184-9.909,16.707-14.768,16.707
		c-4.272,0-12.628-1.943-14.375-12.238h-0.582c-4.857,7.963-15.932,12.627-27.396,12.627c-15.348,0-35.164-7.574-35.164-30.307
		c0-27.977,34-32.64,62.17-32.64v-1.554c0-8.548-6.606-13.988-16.514-13.988c-6.216,0-12.628,3.107-18.844,6.217
		C340.353,83.876,337.827,84.459,335.689,84.459z M379.403,110.299h-4.08c-13.988,0-29.726,1.748-29.726,13.211
		c0,7.383,7.384,9.906,13.796,9.906c12.819,0,20.01-7.77,20.01-19.814V110.299z"/>
	<path fill="#0A203F" d="M425.885,21.511c0-15.348,10.687-17.872,15.933-17.872c5.439,0,16.124,2.524,16.124,17.872V94.95h0.584
		l32.638-34.388c4.664-4.857,9.132-6.801,13.794-6.801c8.743,0,14.571,6.606,14.571,14.57c0,3.887-1.359,8.16-6.605,12.824
		l-19.816,18.262l24.48,27.395c4.469,4.855,5.244,9.131,5.244,12.043c0,8.744-6.604,15.543-15.348,15.543
		c-5.828,0-10.297-2.523-15.736-8.936l-33.222-39.439h-0.584v30.5c0,15.352-10.685,17.875-16.124,17.875
		c-5.246,0-15.933-2.523-15.933-17.875V21.511z"/>
	<path fill="#0A203F" d="M526.96,136.137c0-6.992,5.246-12.434,12.239-12.434c3.108,0,6.022,0.971,9.714,3.498
		c5.635,3.887,10.881,5.439,15.933,5.439c5.244,0,11.463-2.137,11.463-8.354c0-6.025-6.023-7.771-19.235-10.881
		c-13.405-3.107-28.17-10.103-28.17-28.365c0-23.119,21.759-32.445,40.217-32.445c8.354,0,19.815,1.943,26.229,5.635
		c6.408,3.691,8.16,7.771,8.16,11.656c0,6.801-4.664,12.046-12.047,12.046c-2.526,0-5.053-0.972-8.16-2.72
		c-4.468-2.525-8.16-3.691-13.017-3.691c-6.023,0-12.045,2.138-12.045,7.771c0,5.439,5.245,6.8,17.68,9.52
		c14.764,3.303,30.889,10.879,30.889,29.725c0,24.479-21.564,33.027-41.381,33.027c-11.073,0-23.701-2.721-31.083-7.576
		C528.708,144.297,526.96,140.023,526.96,136.137z"/>
	<path fill="#0A203F" d="M710.949,137.303c0,14.766-10.296,17.096-15.155,17.096c-5.048,0-14.956-2.33-15.541-15.346h-0.387
		c-4.469,8.547-15.544,16.123-28.948,16.123c-26.037,0-35.36-20.203-35.36-39.631V71.636c0-15.348,10.684-17.874,16.123-17.874
		c5.249,0,15.933,2.526,15.933,17.874v36.524c0,10.881,2.721,20.596,14.377,20.596c11.076,0,17.096-9.715,17.096-20.789V71.636
		c0-15.348,10.688-17.874,15.931-17.874c5.248,0,15.933,2.526,15.933,17.874V137.303z"/>
</g>
<path fill="#0075CC" d="M0.067,36.25v111.178c0,0,0.151,5.354,6.439,5.336c6.288-0.016,117.888,0,117.888,0s6.892,0.635,5.781-6.393
	C129.064,139.344,57.689,49.459,0.067,36.25z"/>
<path fill="#0092FF" d="M0.067,63.204l0.018,84.224c0,0,0.033,5.336,6.438,5.336c6.404,0,68.28-0.033,68.28-0.033
	S38.075,91.626,0.067,63.204z"/>
<path opacity="0.6" fill="#00EABD" d="M0.006,124.268L0.011,12.969c0,0-0.576-6.473,6.712-6.473c7.289,0,118.249,0,118.249,0
	s8.739,0.334,3.269,8.406C122.771,22.975,100.263,76.057,0.006,124.268z"/>
<path opacity="0.8" fill="#5AE1C6" d="M0.143,96.307L0.019,13.101c0,0-0.6-6.604,6.538-6.604s68.381,0,68.381,0
	S39.517,71.547,0.143,96.307z"/>
</svg>
