<?xml version="1.0" encoding="utf-8"?>
<!-- Generator: Adobe Illustrator 16.0.0, SVG Export Plug-In . SVG Version: 6.00 Build 0)  -->
<!DOCTYPE svg PUBLIC "-//W3C//DTD SVG 1.1//EN" "http://www.w3.org/Graphics/SVG/1.1/DTD/svg11.dtd">
<svg version="1.1"
	 id="Capa_1" xmlns:inkscape="http://www.inkscape.org/namespaces/inkscape" xmlns:dc="http://purl.org/dc/elements/1.1/" xmlns:cc="http://creativecommons.org/ns#" xmlns:rdf="http://www.w3.org/1999/02/22-rdf-syntax-ns#" xmlns:svg="http://www.w3.org/2000/svg" xmlns:sodipodi="http://sodipodi.sourceforge.net/DTD/sodipodi-0.dtd"
	 xmlns="http://www.w3.org/2000/svg" xmlns:xlink="http://www.w3.org/1999/xlink" x="0px" y="0px" width="352px" height="352.008px"
	 viewBox="0 0 352 352.008" enable-background="new 0 0 352 352.008" xml:space="preserve">
<g transform="translate(0,-952.36218)">
	<path fill="#FDB53F" d="M287.25,952.371c-4.123,0.389-7.268,3.859-7.25,8v132.875l-40,18.625v-39.5
		c-0.002-4.419-3.587-7.999-8.005-7.996c-1.165,0-2.314,0.255-3.37,0.746L128,1111.871v-39.5c-0.004-4.419-3.59-7.997-8.009-7.993
		c-1.257,0.001-2.496,0.299-3.616,0.868l-112,57.125c-2.682,1.362-4.373,4.115-4.375,7.125v166.875c0,4.418,3.582,8,8,8h280h56
		c4.418,0,8-3.582,8-8v-224v-112c0-4.418-3.582-8-8-8h-56C287.75,952.359,287.5,952.359,287.25,952.371z M296,968.371h40v104v216
		h-48H16v-154l96-49v39c0.002,4.418,3.587,7.998,8.005,7.996c1.165,0,2.314-0.256,3.37-0.746L224,1084.871v39.5
		c0.002,4.418,3.587,7.998,8.005,7.996c1.165,0,2.314-0.256,3.37-0.746l56-26c2.82-1.312,4.623-4.141,4.625-7.25V968.371z
		 M51.25,1164.371c-4.123,0.389-7.268,3.858-7.25,8v40c0,4.418,3.582,8,8,8h56c4.418,0,8-3.582,8-8v-40c0-4.418-3.582-8-8-8H52
		C51.75,1164.359,51.5,1164.359,51.25,1164.371z M147.25,1164.371c-4.123,0.389-7.268,3.858-7.25,8v40c0,4.418,3.582,8,8,8h56
		c4.418,0,8-3.582,8-8v-40c0-4.418-3.582-8-8-8h-56C147.75,1164.359,147.5,1164.359,147.25,1164.371z M244,1164.371
		c-4.418,0-8,3.582-8,8v40c0,4.418,3.582,8,8,8h56c4.418,0,8-3.582,8-8v-40c0.018-4.142-3.127-7.611-7.25-8
		c-0.25-0.013-0.5-0.013-0.75,0H244z M60,1180.371h40v24H60V1180.371z M156,1180.371h40v24h-40V1180.371z M252,1180.371h40v24h-40
		V1180.371z"/>
</g>
<text transform="matrix(1 0 0 1 300 460.0005)" font-family="'HelveticaNeue-Bold'" font-size="20">Created by iconsphere</text>
<text transform="matrix(1 0 0 1 300 480.0005)" font-family="'HelveticaNeue-Bold'" font-size="20">from the Noun Project</text>
</svg>
