<?xml version="1.0" encoding="utf-8"?>
<!-- Generator: Adobe Illustrator 16.0.0, SVG Export Plug-In . SVG Version: 6.00 Build 0)  -->
<!DOCTYPE svg PUBLIC "-//W3C//DTD SVG 1.1//EN" "http://www.w3.org/Graphics/SVG/1.1/DTD/svg11.dtd">
<svg version="1.1" id="Capa_1" xmlns="http://www.w3.org/2000/svg" xmlns:xlink="http://www.w3.org/1999/xlink" x="0px" y="0px"
	 width="211.667px" height="395.833px" viewBox="394.167 0 211.667 395.833" enable-background="new 394.167 0 211.667 395.833"
	 xml:space="preserve">
<g>
	<rect x="435" y="184.167" fill="#FDB53F" width="130" height="16.667"/>
	<g>
		<g>
			<rect x="540.833" y="232.5" fill="#FDB53F" width="20" height="16.667"/>
			<rect x="490" y="232.5" fill="#FDB53F" width="20" height="16.667"/>
			<rect x="439.167" y="232.5" fill="#FDB53F" width="20" height="16.667"/>
		</g>
		<g>
			<rect x="540.833" y="281.666" fill="#FDB53F" width="20" height="16.668"/>
			<rect x="490" y="281.666" fill="#FDB53F" width="20" height="16.668"/>
			<rect x="439.167" y="281.666" fill="#FDB53F" width="20" height="16.668"/>
		</g>
		<g>
			<rect x="540.833" y="330.833" fill="#FDB53F" width="20" height="16.667"/>
			<rect x="490" y="330.833" fill="#FDB53F" width="20" height="16.667"/>
			<rect x="439.167" y="330.833" fill="#FDB53F" width="20" height="16.667"/>
		</g>
	</g>
	<path fill="#FDB53F" d="M575,159.167H428.333V5l30.834,21.667L480.833,10L502.5,26.667L524.167,10l21.666,15.833L575,4.167V159.167
		z M445,143.333h114.167V37.5l-12.5,10L525,30.833L503.333,47.5l-21.666-16.667L460,46.667l-15-10.833V143.333z"/>
	<path fill="#FDB53F" d="M605.833,395.833H394.167V94.167H445v49.167h114.167V94.167h46.666V395.833L605.833,395.833z M410,379.167
		h179.167V110.833H575V160H428.333v-49.167H410V379.167z"/>
</g>
<text transform="matrix(1 0 0 1 300 525)" font-family="'HelveticaNeue-Bold'" font-size="41.6667">Created by Creative Stall</text>
<text transform="matrix(1 0 0 1 300 566.6641)" font-family="'HelveticaNeue-Bold'" font-size="41.6667">from the Noun Project</text>
</svg>
